<?xml version="1.0" standalone="no"?>
<!DOCTYPE svg PUBLIC "-//W3C//DTD SVG 20010904//EN"
 "http://www.w3.org/TR/2001/REC-SVG-20010904/DTD/svg10.dtd">
<svg version="1.0" xmlns="http://www.w3.org/2000/svg"
 width="370.000000pt" height="370.000000pt" viewBox="0 0 370.000000 370.000000"
 preserveAspectRatio="xMidYMid meet">
<metadata>
Created by potrace 1.11, written by Peter Selinger 2001-2013
</metadata>
<g transform="translate(0.000000,370.000000) scale(0.100000,-0.100000)"
fill="#000000" stroke="none">
<path d="M2818 3669 c-99 -15 -198 -56 -283 -118 -86 -62 -152 -141 -257 -305
-143 -225 -140 -222 -228 -223 -93 -2 -158 -17 -250 -61 -150 -71 -277 -240
-313 -417 -20 -101 -43 -144 -159 -300 -103 -138 -106 -141 -208 -205 -442
-273 -678 -589 -657 -879 9 -138 69 -253 170 -330 42 -31 65 -57 79 -90 20
-47 18 -68 -12 -136 -32 -70 -99 -235 -105 -260 -14 -53 -15 -60 -10 -82 5
-24 37 -38 73 -34 44 5 191 69 275 120 l85 51 95 -38 c140 -56 136 -52 142
-151 4 -72 2 -87 -15 -111 -23 -32 -26 -73 -7 -88 8 -7 33 -9 58 -6 24 2 87 6
139 8 52 3 98 5 103 5 10 1 9 39 -3 62 -17 31 -66 50 -135 52 l-64 2 -6 38
c-8 47 -9 106 -1 114 3 3 34 0 70 -7 86 -16 304 -19 394 -5 40 6 75 9 77 5 7
-11 16 -73 17 -110 0 -19 -9 -51 -21 -71 -22 -38 -20 -64 8 -78 26 -14 267 1
283 17 13 13 -8 59 -36 77 -13 9 -50 18 -83 21 -32 3 -63 7 -69 9 -13 4 -39
139 -30 153 3 5 36 24 73 43 137 69 231 194 272 364 27 110 32 186 35 597 2
196 6 360 9 365 3 4 8 35 11 68 12 110 48 249 73 284 33 44 79 68 200 106 142
45 249 88 274 111 24 22 24 61 -1 98 -10 17 -83 97 -162 179 -97 101 -153 169
-178 213 -46 86 -102 152 -172 204 -32 23 -58 50 -58 59 0 42 34 112 68 142
42 37 121 75 195 95 50 13 143 13 359 0 72 -4 140 9 197 39 36 18 100 80 102
99 1 6 3 32 4 57 9 156 -201 280 -417 248z m-1758 -1753 c0 -2 -8 -10 -17 -17
-16 -13 -17 -12 -4 4 13 16 21 21 21 13z"/>
</g>
</svg>
